<svg width="41" height="45" viewBox="0 0 41 45" fill="none" xmlns="http://www.w3.org/2000/svg">
<g clip-path="url(#clip0_1539_20)">
<path d="M20.5 44.9998C21.8592 44.9998 23.1628 44.4071 24.1239 43.3523C25.085 42.2974 25.625 40.8666 25.625 39.3748H15.375C15.375 40.8666 15.915 42.2974 16.8761 43.3523C17.8372 44.4071 19.1408 44.9998 20.5 44.9998ZM20.5 5.39415L18.4577 5.84696C16.1406 6.36404 14.0577 7.74444 12.5619 9.75424C11.066 11.764 10.2493 14.2796 10.25 16.8748C10.25 18.641 9.90662 23.0538 9.07381 27.3992C8.66381 29.5563 8.11031 31.8035 7.37488 33.7498H33.6251C32.8897 31.8035 32.3387 29.5592 31.9262 27.3992C31.0934 23.0538 30.75 18.641 30.75 16.8748C30.7501 14.2801 29.9331 11.7652 28.4373 9.75596C26.9415 7.74674 24.8589 6.36676 22.5423 5.84978L20.5 5.39415ZM36.4388 33.7498C37.0102 35.007 37.6713 36.0026 38.4375 36.5623H2.5625C3.32869 36.0026 3.98981 35.007 4.56125 33.7498C6.8675 28.6873 7.6875 19.3498 7.6875 16.8748C7.6875 10.0685 12.095 4.38728 17.9503 3.09071C17.9145 2.69965 17.9539 2.30469 18.0657 1.93132C18.1776 1.55796 18.3595 1.21447 18.5997 0.923001C18.8399 0.631537 19.1332 0.398572 19.4605 0.239132C19.7878 0.0796911 20.1419 -0.00268555 20.5 -0.00268555C20.8581 -0.00268555 21.2122 0.0796911 21.5395 0.239132C21.8668 0.398572 22.1601 0.631537 22.4003 0.923001C22.6405 1.21447 22.8224 1.55796 22.9343 1.93132C23.0461 2.30469 23.0855 2.69965 23.0497 3.09071C25.9465 3.73633 28.5508 5.46141 30.4212 7.97359C32.2916 10.4858 33.3131 13.6305 33.3125 16.8748C33.3125 19.3498 34.1325 28.6873 36.4388 33.7498Z" fill="white"/>
</g>
<defs>
<clipPath id="clip0_1539_20">
<rect width="41" height="45" fill="white"/>
</clipPath>
</defs>
</svg>
